<svg viewBox="0 0 920 920" xmlns="http://www.w3.org/2000/svg" role="img" class="cosmos-svg">
<title>The Planar Cosmology of Ahvantir</title>
<desc>The Material Plane at the center, encircled by the Elemental Chaos, the three inner planes (the Dreaming, the Vast Green, the Faded Veil), and the sixteen outer planes of the Great Wheel arranged by alignment.</desc>
<defs>
<radialGradient id="rg-mp" cx="38%" cy="32%" r="65%"><stop offset="0%" stop-color="#c0e8f8"/><stop offset="18%" stop-color="#5aba88"/><stop offset="42%" stop-color="#2d6a42"/><stop offset="68%" stop-color="#1a4a8a"/><stop offset="100%" stop-color="#0a1a30"/></radialGradient>
<radialGradient id="rg-dream" cx="38%" cy="32%" r="65%"><stop offset="0%" stop-color="#f8f0ff"/><stop offset="25%" stop-color="#c0a0f0"/><stop offset="60%" stop-color="#6040a8"/><stop offset="100%" stop-color="#100820"/></radialGradient>
<radialGradient id="rg-veil" cx="38%" cy="32%" r="65%"><stop offset="0%" stop-color="#8a8aaa"/><stop offset="35%" stop-color="#3a2850"/><stop offset="70%" stop-color="#18102a"/><stop offset="100%" stop-color="#050208"/></radialGradient>
<radialGradient id="rg-green" cx="38%" cy="32%" r="65%"><stop offset="0%" stop-color="#e0ffc0"/><stop offset="25%" stop-color="#70d840"/><stop offset="58%" stop-color="#1a7020"/><stop offset="100%" stop-color="#061208"/></radialGradient>
<radialGradient id="rg-gold" cx="38%" cy="30%" r="68%"><stop offset="0%" stop-color="#fff6da"/><stop offset="30%" stop-color="#f0cf7a"/><stop offset="65%" stop-color="#b3852c"/><stop offset="100%" stop-color="#2a1c08"/></radialGradient>
<radialGradient id="rg-crimson" cx="38%" cy="30%" r="68%"><stop offset="0%" stop-color="#ffb0a0"/><stop offset="28%" stop-color="#c43a30"/><stop offset="62%" stop-color="#741420"/><stop offset="100%" stop-color="#1c0408"/></radialGradient>
<radialGradient id="rg-steel" cx="38%" cy="30%" r="68%"><stop offset="0%" stop-color="#eef2f8"/><stop offset="32%" stop-color="#9aa6ba"/><stop offset="66%" stop-color="#4a5468"/><stop offset="100%" stop-color="#0e1218"/></radialGradient>
<radialGradient id="rg-astral" cx="6%" cy="4%" r="94%"><stop offset="0%" stop-color="#3e4f86" stop-opacity="0.85"/><stop offset="36%" stop-color="#222d52" stop-opacity="0.5"/><stop offset="72%" stop-color="#0a1024" stop-opacity="0"/></radialGradient>
<radialGradient id="rg-ethereal" cx="94%" cy="96%" r="94%"><stop offset="0%" stop-color="#2f5a52" stop-opacity="0.8"/><stop offset="40%" stop-color="#1a322e" stop-opacity="0.5"/><stop offset="74%" stop-color="#08120f" stop-opacity="0"/></radialGradient>
<radialGradient id="rg-ranj" cx="38%" cy="30%" r="70%"><stop offset="0%" stop-color="#fffdf0"/><stop offset="25%" stop-color="#ffe9a8"/><stop offset="55%" stop-color="#e0a830"/><stop offset="100%" stop-color="#6a3c08"/></radialGradient>
<filter id="f-soft" x="-80%" y="-80%" width="260%" height="260%"><feGaussianBlur stdDeviation="6"/></filter>
<filter id="f-mist" x="-60%" y="-60%" width="220%" height="220%"><feGaussianBlur stdDeviation="22"/></filter>
<filter id="f-ranjglow" x="-90%" y="-90%" width="280%" height="280%"><feGaussianBlur stdDeviation="9"/></filter>
<filter id="f-chaos"><feGaussianBlur in="SourceGraphic" stdDeviation="15" result="blr"/><feTurbulence type="turbulence" baseFrequency="0.04" numOctaves="3" seed="7" result="nse"/><feDisplacementMap in="blr" in2="nse" scale="10" xChannelSelector="R" yChannelSelector="G"/></filter>
<mask id="m-chaos"><circle cx="460" cy="460" r="82" fill="white"/><circle cx="460" cy="460" r="50" fill="black"/></mask>
</defs>
<!-- Background: Astral / Ethereal -->
<rect width="920" height="920" fill="#050210"/>
<rect width="920" height="920" fill="url(#rg-astral)"/>
<rect width="920" height="920" fill="url(#rg-ethereal)"/>
<g opacity="0.5">
<line x1="55" y1="85" x2="235" y2="55" stroke="#8090c0" stroke-width="0.6" opacity="0.22"/>
<line x1="235" y1="55" x2="430" y2="70" stroke="#8090c0" stroke-width="0.6" opacity="0.22"/>
<line x1="55" y1="85" x2="150" y2="235" stroke="#8090c0" stroke-width="0.6" opacity="0.22"/>
<line x1="235" y1="55" x2="150" y2="235" stroke="#8090c0" stroke-width="0.6" opacity="0.22"/>
<line x1="150" y1="235" x2="350" y2="160" stroke="#8090c0" stroke-width="0.6" opacity="0.22"/>
<line x1="430" y1="70" x2="350" y2="160" stroke="#8090c0" stroke-width="0.6" opacity="0.22"/>
<line x1="235" y1="55" x2="350" y2="160" stroke="#8090c0" stroke-width="0.6" opacity="0.22"/>
<line x1="150" y1="235" x2="75" y2="345" stroke="#8090c0" stroke-width="0.6" opacity="0.22"/>
<line x1="150" y1="235" x2="300" y2="340" stroke="#8090c0" stroke-width="0.6" opacity="0.22"/>
<line x1="350" y1="160" x2="300" y2="340" stroke="#8090c0" stroke-width="0.6" opacity="0.22"/>
<line x1="75" y1="345" x2="300" y2="340" stroke="#8090c0" stroke-width="0.6" opacity="0.22"/>
<circle cx="55" cy="85" r="1.3" fill="#aab8e0" opacity="0.4"/>
<circle cx="235" cy="55" r="1.3" fill="#aab8e0" opacity="0.4"/>
<circle cx="150" cy="235" r="1.3" fill="#aab8e0" opacity="0.4"/>
<circle cx="350" cy="160" r="1.3" fill="#aab8e0" opacity="0.4"/>
<circle cx="75" cy="345" r="1.3" fill="#aab8e0" opacity="0.4"/>
<circle cx="300" cy="340" r="1.3" fill="#aab8e0" opacity="0.4"/>
<circle cx="430" cy="70" r="1.3" fill="#aab8e0" opacity="0.4"/>
</g>
<g filter="url(#f-mist)">
<circle cx="720" cy="720" r="120" fill="#2f6a5e" opacity="0.18"/>
<circle cx="830" cy="640" r="95" fill="#2f6a5e" opacity="0.14"/>
<circle cx="640" cy="830" r="110" fill="#2f6a5e" opacity="0.15"/>
<circle cx="860" cy="850" r="80" fill="#2f6a5e" opacity="0.16"/>
</g>
<g opacity="0.65">
<circle cx="90" cy="70" r="1.3" fill="#eef0ff" opacity="0.7"/>
<circle cx="210" cy="120" r="0.9" fill="#eef0ff" opacity="0.6"/>
<circle cx="700" cy="95" r="1.4" fill="#eef0ff" opacity="0.8"/>
<circle cx="820" cy="200" r="0.9" fill="#eef0ff" opacity="0.5"/>
<circle cx="70" cy="360" r="1.2" fill="#eef0ff" opacity="0.6"/>
<circle cx="850" cy="520" r="0.9" fill="#eef0ff" opacity="0.7"/>
<circle cx="780" cy="760" r="1.3" fill="#eef0ff" opacity="0.5"/>
<circle cx="140" cy="760" r="0.9" fill="#eef0ff" opacity="0.6"/>
<circle cx="320" cy="840" r="1.3" fill="#eef0ff" opacity="0.7"/>
<circle cx="620" cy="850" r="0.9" fill="#eef0ff" opacity="0.5"/>
<circle cx="180" cy="230" r="0.6" fill="#eef0ff" opacity="0.5"/>
<circle cx="380" cy="95" r="0.6" fill="#eef0ff" opacity="0.4"/>
<circle cx="560" cy="80" r="0.6" fill="#eef0ff" opacity="0.6"/>
<circle cx="880" cy="360" r="0.6" fill="#eef0ff" opacity="0.5"/>
<circle cx="895" cy="450" r="0.6" fill="#eef0ff" opacity="0.4"/>
<circle cx="885" cy="700" r="0.6" fill="#eef0ff" opacity="0.5"/>
<circle cx="110" cy="600" r="0.6" fill="#eef0ff" opacity="0.5"/>
<circle cx="50" cy="760" r="0.6" fill="#eef0ff" opacity="0.4"/>
<circle cx="250" cy="880" r="0.6" fill="#eef0ff" opacity="0.5"/>
<circle cx="720" cy="860" r="0.6" fill="#eef0ff" opacity="0.4"/>
<circle cx="40" cy="180" r="0.7" fill="#eef0ff" opacity="0.5"/>
<circle cx="470" cy="870" r="0.6" fill="#eef0ff" opacity="0.5"/>
<circle cx="660" cy="200" r="0.5" fill="#eef0ff" opacity="0.4"/>
<circle cx="300" cy="300" r="0.5" fill="#eef0ff" opacity="0.4"/>
</g>
<text x="28" y="42" text-anchor="start" font-family="Georgia,'Times New Roman',serif" font-size="11" fill="#aab8e0" letter-spacing="0.14em" opacity="0.72">THE ASTRAL SEA</text>
<text x="28" y="56" text-anchor="start" font-family="Georgia,'Times New Roman',serif" font-size="8" fill="#7888b0" letter-spacing="0.04em" font-style="italic" opacity="0.6">the scaffolding between worlds</text>
<text x="892" y="884" text-anchor="end" font-family="Georgia,'Times New Roman',serif" font-size="11" fill="#88c0b0" letter-spacing="0.14em" opacity="0.72">THE ETHEREAL</text>
<text x="892" y="898" text-anchor="end" font-family="Georgia,'Times New Roman',serif" font-size="8" fill="#5e9084" letter-spacing="0.04em" font-style="italic" opacity="0.6">the unseen between-space</text>
<circle cx="460" cy="460" r="158" fill="none" stroke="#c9a96e" stroke-width="0.6" stroke-dasharray="5 9" opacity="0.20"/>
<circle cx="460" cy="460" r="362" fill="none" stroke="#c9a96e" stroke-width="0.6" stroke-dasharray="5 9" opacity="0.18"/>
<!-- Outer planes (Great Wheel) -->
<circle cx="204" cy="204" r="38" fill="#caa24a" opacity="0.20" filter="url(#f-soft)"/>
<circle cx="204" cy="204" r="29" fill="url(#rg-gold)"/>
<ellipse cx="194.7" cy="193.6" rx="9.9" ry="6.4" fill="#ffffff" opacity="0.16"/>
<text x="171.5" y="174.5" text-anchor="end" font-family="Georgia,'Times New Roman',serif" font-size="10.5" fill="#d8c8a8" letter-spacing="0.04em">Celestia</text>
<circle cx="321.5" cy="125.6" r="38" fill="#caa24a" opacity="0.20" filter="url(#f-soft)"/>
<circle cx="321.5" cy="125.6" r="29" fill="url(#rg-gold)"/>
<ellipse cx="312.2" cy="115.1" rx="9.9" ry="6.4" fill="#ffffff" opacity="0.16"/>
<text x="303.9" y="86.1" text-anchor="end" font-family="Georgia,'Times New Roman',serif" font-size="10.5" fill="#d8c8a8" letter-spacing="0.04em">Bytopia</text>
<circle cx="460" cy="98" r="38" fill="#caa24a" opacity="0.20" filter="url(#f-soft)"/>
<circle cx="460" cy="98" r="29" fill="url(#rg-gold)"/>
<ellipse cx="450.7" cy="87.6" rx="9.9" ry="6.4" fill="#ffffff" opacity="0.16"/>
<text x="460" y="55" text-anchor="middle" font-family="Georgia,'Times New Roman',serif" font-size="10.5" fill="#d8c8a8" letter-spacing="0.04em">Elysium</text>
<circle cx="598.5" cy="125.6" r="38" fill="#caa24a" opacity="0.20" filter="url(#f-soft)"/>
<circle cx="598.5" cy="125.6" r="29" fill="url(#rg-gold)"/>
<ellipse cx="589.3" cy="115.1" rx="9.9" ry="6.4" fill="#ffffff" opacity="0.16"/>
<text x="616.1" y="86.1" text-anchor="start" font-family="Georgia,'Times New Roman',serif" font-size="10.5" fill="#d8c8a8" letter-spacing="0.04em">Beastlands</text>
<circle cx="716" cy="204" r="38" fill="#caa24a" opacity="0.20" filter="url(#f-soft)"/>
<circle cx="716" cy="204" r="29" fill="url(#rg-gold)"/>
<ellipse cx="706.7" cy="193.6" rx="9.9" ry="6.4" fill="#ffffff" opacity="0.16"/>
<text x="748.5" y="174.5" text-anchor="start" font-family="Georgia,'Times New Roman',serif" font-size="10.5" fill="#d8c8a8" letter-spacing="0.04em">Arborea</text>
<circle cx="794.4" cy="321.5" r="38" fill="#caa24a" opacity="0.20" filter="url(#f-soft)"/>
<circle cx="794.4" cy="321.5" r="29" fill="url(#rg-gold)"/>
<ellipse cx="785.2" cy="311" rx="9.9" ry="6.4" fill="#ffffff" opacity="0.16"/>
<text x="836.9" y="306.9" text-anchor="start" font-family="Georgia,'Times New Roman',serif" font-size="10.5" fill="#d8c8a8" letter-spacing="0.04em">Ysgard</text>
<circle cx="822" cy="460" r="38" fill="#caa24a" opacity="0.20" filter="url(#f-soft)"/>
<circle cx="822" cy="460" r="29" fill="url(#rg-gold)"/>
<ellipse cx="812.7" cy="449.6" rx="9.9" ry="6.4" fill="#ffffff" opacity="0.16"/>
<text x="868" y="463" text-anchor="start" font-family="Georgia,'Times New Roman',serif" font-size="10.5" fill="#d8c8a8" letter-spacing="0.04em">Limbo</text>
<circle cx="794.4" cy="598.5" r="38" fill="#8a1f2a" opacity="0.20" filter="url(#f-soft)"/>
<circle cx="794.4" cy="598.5" r="29" fill="url(#rg-crimson)"/>
<ellipse cx="785.2" cy="588.1" rx="9.9" ry="6.4" fill="#ffffff" opacity="0.16"/>
<text x="836.9" y="619.1" text-anchor="start" font-family="Georgia,'Times New Roman',serif" font-size="10.5" fill="#d8c8a8" letter-spacing="0.04em">Pandemonium</text>
<circle cx="716" cy="716" r="38" fill="#8a1f2a" opacity="0.20" filter="url(#f-soft)"/>
<circle cx="716" cy="716" r="29" fill="url(#rg-crimson)"/>
<ellipse cx="706.7" cy="705.5" rx="9.9" ry="6.4" fill="#ffffff" opacity="0.16"/>
<text x="748.5" y="751.5" text-anchor="start" font-family="Georgia,'Times New Roman',serif" font-size="10.5" fill="#d8c8a8" letter-spacing="0.04em">The Abyss</text>
<circle cx="598.5" cy="794.4" r="38" fill="#8a1f2a" opacity="0.20" filter="url(#f-soft)"/>
<circle cx="598.5" cy="794.4" r="29" fill="url(#rg-crimson)"/>
<ellipse cx="589.3" cy="784" rx="9.9" ry="6.4" fill="#ffffff" opacity="0.16"/>
<text x="616.1" y="839.9" text-anchor="start" font-family="Georgia,'Times New Roman',serif" font-size="10.5" fill="#d8c8a8" letter-spacing="0.04em">Carceri</text>
<circle cx="460" cy="822" r="38" fill="#8a1f2a" opacity="0.20" filter="url(#f-soft)"/>
<circle cx="460" cy="822" r="29" fill="url(#rg-crimson)"/>
<ellipse cx="450.7" cy="811.6" rx="9.9" ry="6.4" fill="#ffffff" opacity="0.16"/>
<text x="460" y="871" text-anchor="middle" font-family="Georgia,'Times New Roman',serif" font-size="10.5" fill="#d8c8a8" letter-spacing="0.04em">Hades</text>
<circle cx="321.5" cy="794.4" r="38" fill="#8a1f2a" opacity="0.20" filter="url(#f-soft)"/>
<circle cx="321.5" cy="794.4" r="29" fill="url(#rg-crimson)"/>
<ellipse cx="312.2" cy="784" rx="9.9" ry="6.4" fill="#ffffff" opacity="0.16"/>
<text x="303.9" y="839.9" text-anchor="end" font-family="Georgia,'Times New Roman',serif" font-size="10.5" fill="#d8c8a8" letter-spacing="0.04em">Gehenna</text>
<circle cx="204" cy="716" r="38" fill="#8a1f2a" opacity="0.20" filter="url(#f-soft)"/>
<circle cx="204" cy="716" r="29" fill="url(#rg-crimson)"/>
<ellipse cx="194.7" cy="705.5" rx="9.9" ry="6.4" fill="#ffffff" opacity="0.16"/>
<text x="171.5" y="751.5" text-anchor="end" font-family="Georgia,'Times New Roman',serif" font-size="10.5" fill="#d8c8a8" letter-spacing="0.04em">Nine Hells</text>
<circle cx="125.6" cy="598.5" r="38" fill="#8a1f2a" opacity="0.20" filter="url(#f-soft)"/>
<circle cx="125.6" cy="598.5" r="29" fill="url(#rg-crimson)"/>
<ellipse cx="116.3" cy="588.1" rx="9.9" ry="6.4" fill="#ffffff" opacity="0.16"/>
<text x="83.1" y="619.1" text-anchor="end" font-family="Georgia,'Times New Roman',serif" font-size="10.5" fill="#d8c8a8" letter-spacing="0.04em">Acheron</text>
<circle cx="98" cy="460" r="38" fill="#6a7488" opacity="0.20" filter="url(#f-soft)"/>
<circle cx="98" cy="460" r="29" fill="url(#rg-steel)"/>
<ellipse cx="88.7" cy="449.6" rx="9.9" ry="6.4" fill="#ffffff" opacity="0.16"/>
<text x="52" y="463" text-anchor="end" font-family="Georgia,'Times New Roman',serif" font-size="10.5" fill="#d8c8a8" letter-spacing="0.04em">Mechanus</text>
<circle cx="125.6" cy="321.5" r="38" fill="#6a7488" opacity="0.20" filter="url(#f-soft)"/>
<circle cx="125.6" cy="321.5" r="29" fill="url(#rg-steel)"/>
<ellipse cx="116.3" cy="311" rx="9.9" ry="6.4" fill="#ffffff" opacity="0.16"/>
<text x="83.1" y="306.9" text-anchor="end" font-family="Georgia,'Times New Roman',serif" font-size="10.5" fill="#d8c8a8" letter-spacing="0.04em">Arcadia</text>
<!-- Inner planes -->
<circle cx="460" cy="302" r="46" fill="#7040b8" opacity="0.20" filter="url(#f-soft)"/>
<circle cx="460" cy="302" r="34" fill="url(#rg-dream)"/>
<ellipse cx="449.1" cy="289.8" rx="10.9" ry="6.8" fill="#ffffff" opacity="0.16"/>
<text x="460" y="254" text-anchor="middle" font-family="Georgia,'Times New Roman',serif" font-size="13" fill="#e8dcc4" letter-spacing="0.05em">The Dreaming</text>
<text x="460" y="267" text-anchor="middle" font-family="Georgia,'Times New Roman',serif" font-size="9" fill="#9a8a72" letter-spacing="0.03em" font-style="italic">Nodd's Sovereign Domain</text>
<circle cx="596.8" cy="539" r="46" fill="#2f9a2f" opacity="0.20" filter="url(#f-soft)"/>
<circle cx="596.8" cy="539" r="34" fill="url(#rg-green)"/>
<ellipse cx="586" cy="526.8" rx="10.9" ry="6.8" fill="#ffffff" opacity="0.16"/>
<text x="596.8" y="595" text-anchor="middle" font-family="Georgia,'Times New Roman',serif" font-size="13" fill="#e8dcc4" letter-spacing="0.05em">The Vast Green</text>
<text x="596.8" y="608" text-anchor="middle" font-family="Georgia,'Times New Roman',serif" font-size="9" fill="#9a8a72" letter-spacing="0.03em" font-style="italic">The Fey Realm</text>
<circle cx="323.2" cy="539" r="46" fill="#3a2850" opacity="0.20" filter="url(#f-soft)"/>
<circle cx="323.2" cy="539" r="34" fill="url(#rg-veil)"/>
<ellipse cx="312.3" cy="526.8" rx="10.9" ry="6.8" fill="#ffffff" opacity="0.16"/>
<text x="323.2" y="595" text-anchor="middle" font-family="Georgia,'Times New Roman',serif" font-size="13" fill="#e8dcc4" letter-spacing="0.05em">The Faded Veil</text>
<text x="323.2" y="608" text-anchor="middle" font-family="Georgia,'Times New Roman',serif" font-size="9" fill="#9a8a72" letter-spacing="0.03em" font-style="italic">The Dark Mirror</text>
<!-- Elemental Chaos band -->
<g mask="url(#m-chaos)" filter="url(#f-chaos)">
<circle cx="506" cy="426" r="74" fill="#e8521a"/>
<circle cx="506" cy="494" r="74" fill="#9a7018"/>
<circle cx="414" cy="494" r="74" fill="#1a48c0"/>
<circle cx="414" cy="426" r="74" fill="#88b8d8"/>
<circle cx="500" cy="460" r="44" fill="#c88020" opacity="0.55"/>
<circle cx="420" cy="460" r="44" fill="#3888c0" opacity="0.55"/>
</g>
<text x="550" y="457" font-family="Georgia,'Times New Roman',serif" font-size="8.5" fill="#c8a050" letter-spacing="0.10em" opacity="0.75">ELEMENTAL</text>
<text x="550" y="469" font-family="Georgia,'Times New Roman',serif" font-size="8.5" fill="#c8a050" letter-spacing="0.10em" opacity="0.75">CHAOS</text>
<!-- Material Plane -->
<circle cx="460" cy="460" r="46" fill="url(#rg-mp)" filter="url(#f-soft)"/>
<circle cx="460" cy="460" r="46" fill="url(#rg-mp)"/>
<ellipse cx="447" cy="445" rx="14" ry="9" fill="#e0f8ff" opacity="0.14"/>
<text x="460" y="464" text-anchor="middle" font-family="Georgia,'Times New Roman',serif" font-size="11" fill="#e8f4ee" letter-spacing="0.06em">Ahvantir</text>
<!-- The Ranjergon (Deific Plane), behind the Divine Gate -->
<circle cx="850" cy="80" r="62" fill="#ffd060" opacity="0.16" filter="url(#f-ranjglow)"/>
<circle cx="850" cy="80" r="64" fill="none" stroke="#f0d890" stroke-width="1.2" stroke-dasharray="2 7" opacity="0.55"/>
<circle cx="850" cy="80" r="57" fill="none" stroke="#e8c870" stroke-width="0.8" stroke-dasharray="1 6" opacity="0.4"/>
<circle cx="850" cy="80" r="46" fill="url(#rg-ranj)"/>
<ellipse cx="835.3" cy="63.4" rx="13.8" ry="9.2" fill="#fffdf0" opacity="0.22"/>
<text x="850" y="156" text-anchor="middle" font-family="Georgia,'Times New Roman',serif" font-size="12" fill="#f0dca0" letter-spacing="0.05em">The Ranjergon</text>
<text x="850" y="169" text-anchor="middle" font-family="Georgia,'Times New Roman',serif" font-size="8.5" fill="#b09850" letter-spacing="0.03em" font-style="italic">Behind the Divine Gate</text>
</svg>